<?xml version="1.0" encoding="UTF-8" standalone="no"?>
<!-- Created with Inkscape (http://www.inkscape.org/) -->

<svg
   version="1.1"
   id="svg1"
   width="720"
   height="1280"
   viewBox="0 0 720 1280"
   sodipodi:docname="hero.svg"
   inkscape:version="1.4 (86a8ad7, 2024-10-11)"
   xmlns:inkscape="http://www.inkscape.org/namespaces/inkscape"
   xmlns:sodipodi="http://sodipodi.sourceforge.net/DTD/sodipodi-0.dtd"
   xmlns="http://www.w3.org/2000/svg"
   xmlns:svg="http://www.w3.org/2000/svg">
  <defs
     id="defs1" />
  <sodipodi:namedview
     id="namedview1"
     pagecolor="#00000f"
     bordercolor="#000000"
     borderopacity="0.25"
     inkscape:showpageshadow="2"
     inkscape:pageopacity="0.0"
     inkscape:pagecheckerboard="0"
     inkscape:deskcolor="#d1d1d1"
     showgrid="false"
     inkscape:zoom="0.56610633"
     inkscape:cx="157.21428"
     inkscape:cy="684.50039"
     inkscape:window-width="1920"
     inkscape:window-height="1009"
     inkscape:window-x="-8"
     inkscape:window-y="-8"
     inkscape:window-maximized="1"
     inkscape:current-layer="g1" />
  <g
     inkscape:groupmode="layer"
     inkscape:label="Image"
     id="g1">
    <path
       style="fill:#1f84fd;fill-opacity:1;stroke-width:2.45691"
       d="M 183.50536,639.99998 V 451.22132 l 34.8023,1.2896 c 20.89059,0.77409 40.57697,2.8267 49.24855,5.13492 25.19725,6.70706 50.0264,20.33805 69.86044,38.3528 22.98255,20.87444 32.14207,32.55607 52.5011,66.95742 l 16.09626,27.19842 13.62562,-15.7074 c 22.52664,-25.96844 41.14928,-62.47205 48.98834,-96.02587 2.08241,-8.91337 4.40329,-18.53307 5.15751,-21.3771 1.31464,-4.95724 2.50907,-5.17096 28.90043,-5.17096 23.58347,0 27.52917,0.53165 27.52917,3.7093 0,8.26369 -14.25283,53.86076 -22.67646,72.54565 -15.52321,34.43281 -39.56024,69.19605 -64.43363,93.18629 -5.54052,5.34381 -10.07371,10.61457 -10.07371,11.71279 0,1.09825 11.36258,22.58084 25.25018,47.73913 13.88759,25.15825 36.46372,66.9432 50.16911,92.85546 13.7054,25.91225 26.02372,48.92303 27.37403,51.13505 2.27406,3.72532 0.15185,4.02185 -28.78381,4.02185 h -31.23888 l -17.89892,-33.89851 c -45.63908,-86.43531 -71.9812,-131.93499 -75.34176,-130.13486 -1.85625,0.9943 -8.61764,5.30042 -15.02525,9.5691 -29.69988,19.78579 -83.91901,37.12611 -116.39595,37.22567 l -9.84972,0.0302 v 58.60422 58.60419 h -28.89248 -28.89247 z m 101.04669,23.00611 c 26.4371,-7.68814 77.56135,-36.07105 77.56135,-43.06018 0,-5.21502 -32.42154,-58.21135 -44.00567,-71.93172 -20.12827,-23.84022 -47.27522,-41.88941 -70.76124,-47.04707 l -6.05618,-1.32996 v 85.57876 85.57881 l 13.7126,-1.59162 c 7.54193,-0.87538 20.83906,-3.66406 29.54914,-6.19702 z"
       id="path8" />
  </g>
</svg>
