<?xml version="1.0" encoding="UTF-8" standalone="no"?>
<!-- Created with Inkscape (http://www.inkscape.org/) -->

<svg
   width="15.268in"
   height="6.276in"
   viewBox="0 0 387.80719 159.4104"
   version="1.1"
   id="svg1"
   inkscape:version="1.4 (86a8ad7, 2024-10-11)"
   sodipodi:docname="name.svg"
   xmlns:inkscape="http://www.inkscape.org/namespaces/inkscape"
   xmlns:sodipodi="http://sodipodi.sourceforge.net/DTD/sodipodi-0.dtd"
   xmlns="http://www.w3.org/2000/svg"
   xmlns:svg="http://www.w3.org/2000/svg">
  <sodipodi:namedview
     id="namedview1"
     pagecolor="#ffffff"
     bordercolor="#000000"
     borderopacity="0.25"
     inkscape:showpageshadow="2"
     inkscape:pageopacity="0.0"
     inkscape:pagecheckerboard="0"
     inkscape:deskcolor="#d1d1d1"
     inkscape:document-units="mm"
     showguides="true"
     inkscape:zoom="0.50835204"
     inkscape:cx="687.51568"
     inkscape:cy="429.82025"
     inkscape:window-width="1920"
     inkscape:window-height="1009"
     inkscape:window-x="-8"
     inkscape:window-y="-8"
     inkscape:window-maximized="1"
     inkscape:current-layer="layer1" />
  <defs
     id="defs1" />
  <g
     inkscape:label="Layer 1"
     inkscape:groupmode="layer"
     id="layer1">
    <path
       style="fill:#1f84fd;fill-opacity:1;stroke-width:0.404372"
       d="M 38.82808,79.700672 V 46.542126 h 3.805966 c 12.96939,0 20.416843,5.247748 28.066926,19.77699 l 2.3772,4.514831 1.39619,-1.733318 c 3.80378,-4.722246 6.97776,-11.485206 8.21488,-17.503846 0.36572,-1.77924 0.74924,-3.644407 0.85228,-4.144818 0.17989,-0.873747 0.35543,-0.909839 4.42552,-0.909839 3.12126,0 4.23807,0.13321 4.23769,0.505467 -0.001,1.005091 -2.01617,8.795453 -3.0135,11.650036 -2.03579,5.82689 -7.62839,15.150992 -10.88148,18.141828 -0.58646,0.539182 -1.06629,1.225601 -1.06629,1.525374 0,0.299777 0.70652,1.95126 1.57003,3.669959 1.3741,2.734962 8.59475,18.01781 12.3697,26.18107 2.34633,5.07393 2.59917,4.64335 -2.72658,4.64335 h -4.61188 l -1.24485,-2.7295 c -5.34666,-11.72335 -11.98204,-25.481699 -12.58048,-26.085386 -0.16718,-0.168645 -1.26748,0.412246 -2.4451,1.29087 -4.915185,3.667216 -11.390317,6.224436 -17.120514,6.761396 l -2.729513,0.25576 v 10.25344 10.25342 H 43.276176 38.82808 Z m 15.556489,3.986446 c 2.796037,-0.934073 6.783291,-3.138106 10.071342,-5.56713 l 2.269462,-1.676554 -2.26759,-4.538062 C 59.463729,61.910942 55.425766,57.577694 48.736507,55.034442 l -1.012232,-0.384849 v 15.206056 15.206055 l 2.111102,-0.280048 c 1.161108,-0.154026 3.208244,-0.646568 4.549192,-1.094538 z M 279.6319,107.60176 c -4.9117,-0.73873 -8.55575,-2.53685 -10.82942,-5.34363 -3.66805,-4.52816 -3.91451,-6.14092 -3.92316,-25.673023 l -0.008,-15.853295 1.3142,-0.243877 c 0.72283,-0.134127 2.58799,-0.187867 4.14482,-0.119409 l 2.83062,0.124453 0.20218,16.377086 c 0.19974,16.178625 0.21371,16.400495 1.15342,18.308855 1.66412,3.3795 4.31428,4.74038 9.2314,4.74038 3.44493,0 5.39498,-0.67603 7.31756,-2.5368 2.37427,-2.29795 2.51623,-3.47938 2.51623,-20.939654 V 60.796257 l 1.26368,-0.252733 c 0.69501,-0.139002 2.52348,-0.252732 4.06325,-0.252732 h 2.79959 l -0.12058,17.893482 -0.12059,17.893486 -1.07579,2.29487 c -2.49645,5.32539 -7.36718,8.50774 -14.10801,9.21763 -2.10193,0.22136 -4.00367,0.38292 -4.22608,0.35903 -0.2224,-0.0239 -1.31421,-0.18028 -2.42623,-0.34753 z m 48.5247,-0.0496 c -3.30879,-0.43558 -6.97194,-2.06031 -9.38468,-4.16242 -2.25093,-1.96113 -4.16241,-5.86636 -4.45596,-9.1037 l -0.22523,-2.48376 4.19627,0.11588 4.19624,0.11588 0.23706,1.4153 c 0.67541,4.03237 3.42438,6.29632 8.17722,6.73444 3.02719,0.27906 5.46889,-0.31364 7.16234,-1.73859 2.47194,-2.08 3.05101,-4.57903 1.60906,-6.94413 -1.02463,-1.68059 -2.83603,-2.49367 -9.52883,-4.27716 -9.96117,-2.654449 -12.48671,-4.063881 -14.49883,-8.091384 -1.02898,-2.059663 -1.1929,-2.842027 -1.1929,-5.693953 0,-4.131501 1.23811,-6.965879 4.20994,-9.637814 3.37463,-3.034088 7.01454,-4.306029 12.34504,-4.313897 9.39473,-0.01391 15.91292,4.980919 16.63839,12.749719 l 0.24388,2.611636 h -4.30439 -4.30438 v -1.435385 c 0,-4.150776 -4.48475,-7.095307 -9.94792,-6.531462 -1.2191,0.125828 -2.79983,0.56943 -3.51274,0.985784 -2.90094,1.694239 -4.00061,5.34635 -2.27164,7.54437 1.26664,1.610271 3.20032,2.420488 9.66671,4.050392 7.92258,1.996941 10.44739,3.088881 12.69284,5.489441 3.38625,3.620183 4.05251,9.579743 1.6159,14.453923 -0.64165,1.28354 -1.38755,2.2904 -1.65755,2.23747 -0.27488,-0.0539 -0.39377,0.15687 -0.27018,0.47895 0.23411,0.61009 -2.11262,2.5265 -4.7643,3.89069 -2.92065,1.50256 -8.13812,2.13657 -12.67136,1.53979 z M 117.27634,83.54221 V 60.290792 l 3.13388,0.02843 c 1.72364,0.01565 3.44304,0.1521 3.82089,0.303279 1.29837,0.519449 19.52313,26.525079 19.08529,27.233529 -0.16724,0.27062 -0.10652,0.35105 0.14672,0.19451 0.24487,-0.15134 1.14743,0.8046 2.08435,2.20764 l 1.65245,2.47457 V 76.511769 60.290792 h 4.04372 4.04372 v 23.251418 23.25142 l -3.74044,-0.018 -3.74045,-0.018 -2.19535,-3.11591 c -1.20744,-1.71378 -3.74224,-5.29956 -5.63288,-7.96842 -8.11046,-11.448881 -13.17317,-18.682725 -13.86726,-19.814247 -0.7305,-1.19086 -0.74418,-0.918233 -0.74566,14.860687 l -0.002,16.07381 h -4.04372 -4.04373 z m 52.66621,0.101099 0.10439,-23.150326 h 15.16396 15.16398 l 0.1163,3.740446 0.11631,3.740446 h -11.33762 -11.3376 v 5.661216 5.661214 h 10.51368 10.5137 v 3.639352 3.639353 h -10.5137 -10.51368 v 6.26777 6.26778 h 11.32243 11.32244 v 3.84154 3.84154 H 185.2076 169.83812 Z m 39.93508,22.751671 c 0,-0.21925 1.57413,-2.63033 3.49806,-5.35793 10.99937,-15.594113 12.73554,-18.17392 12.55228,-18.651501 -0.11096,-0.289131 -1.5473,-2.421758 -3.19189,-4.739168 -1.64458,-2.317415 -4.06334,-5.760201 -5.37501,-7.650643 -1.31166,-1.890441 -3.25908,-4.697851 -4.32757,-6.238684 -1.06851,-1.540837 -1.94275,-2.951086 -1.94275,-3.133887 0,-0.182804 2.13813,-0.3323 4.75139,-0.332211 l 4.75137,1.57e-4 4.03164,5.964337 c 2.21739,3.280383 4.58297,6.817202 5.25684,7.859594 0.67386,1.042391 1.39574,1.849891 1.60417,1.794448 0.20842,-0.05545 2.84714,-3.546841 5.86381,-7.75866 l 5.48483,-7.657849 4.54879,-0.114334 c 2.50184,-0.06289 4.54879,-0.01376 4.54879,0.109123 0,0.416467 -1.96775,3.343347 -6.97787,10.379024 -7.71859,10.839148 -8.54978,12.135433 -8.1436,12.700349 4.12508,5.737265 15.52584,22.487725 15.52584,22.811205 0,0.29963 -1.50965,0.40444 -4.71057,0.32702 l -4.71058,-0.11392 -5.74492,-8.47243 c -3.15972,-4.65983 -5.90759,-8.5186 -6.1064,-8.57502 -0.1988,-0.0564 -1.15588,1.17289 -2.12685,2.73181 -0.97096,1.55893 -2.42671,3.72661 -3.23498,4.81708 -0.80826,1.09046 -2.65237,3.71107 -4.09801,5.82356 l -2.62842,3.8409 -4.54918,0.0182 c -2.73197,0.0109 -4.54921,-0.1411 -4.54921,-0.38051 z"
       id="path1" />
  </g>
</svg>
