<?xml version="1.0" encoding="UTF-8" standalone="no"?>
<!-- Created with Inkscape (http://www.inkscape.org/) -->

<svg
   version="1.1"
   id="svg1"
   width="272"
   height="252"
   viewBox="0 0 272 252"
   sodipodi:docname="icon.svg"
   inkscape:version="1.4 (86a8ad7, 2024-10-11)"
   xmlns:inkscape="http://www.inkscape.org/namespaces/inkscape"
   xmlns:sodipodi="http://sodipodi.sourceforge.net/DTD/sodipodi-0.dtd"
   xmlns="http://www.w3.org/2000/svg"
   xmlns:svg="http://www.w3.org/2000/svg">
  <defs
     id="defs1" />
  <sodipodi:namedview
     id="namedview1"
     pagecolor="#ffffff"
     bordercolor="#000000"
     borderopacity="0.25"
     inkscape:showpageshadow="2"
     inkscape:pageopacity="0.0"
     inkscape:pagecheckerboard="0"
     inkscape:deskcolor="#d1d1d1"
     showgrid="false"
     inkscape:zoom="2.2644253"
     inkscape:cx="103.77909"
     inkscape:cy="147.27799"
     inkscape:window-width="1920"
     inkscape:window-height="1009"
     inkscape:window-x="-8"
     inkscape:window-y="-8"
     inkscape:window-maximized="1"
     inkscape:current-layer="g1" />
  <g
     inkscape:groupmode="layer"
     inkscape:label="Image"
     id="g1">
    <path
       style="fill:#1f84fd;fill-opacity:1;stroke-width:1.07617"
       d="M 61.95961,125.99999 V 39.662858 l 14.599739,0.58979 c 8.763711,0.35403 17.022239,1.292784 20.660013,2.348437 10.570378,3.067448 20.986328,9.301522 29.306808,17.540495 9.6413,9.546836 13.48376,14.889382 22.02448,30.622694 l 6.75246,12.439086 5.71601,-7.183717 c 9.45004,-11.876556 17.26233,-28.571329 20.55086,-43.917028 0.87358,-4.076495 1.8472,-8.476022 2.1636,-9.776726 0.5515,-2.267175 1.05257,-2.364917 12.12388,-2.364917 9.89338,0 11.54862,0.243145 11.54862,1.69643 0,3.779367 -5.97913,24.632995 -9.51289,33.178452 -6.51206,15.747706 -16.59572,31.646526 -27.03023,42.618356 -2.32428,2.44397 -4.22597,4.85453 -4.22597,5.3568 0,0.50228 4.76666,10.32726 10.59258,21.83329 5.82591,11.50602 15.29671,30.6162 21.04619,42.46706 5.74949,11.85086 10.91708,22.37474 11.48354,23.3864 0.95398,1.70376 0.0637,1.83938 -12.07495,1.83938 H 184.57948 L 177.0708,196.8338 c -19.14583,-39.53083 -30.19648,-60.33992 -31.60625,-59.51664 -0.77871,0.45474 -3.61514,2.42413 -6.30317,4.37639 -12.45925,9.04895 -35.20445,16.97947 -48.828691,17.025 l -4.132002,0.0138 v 26.80239 26.80239 H 74.080148 61.95961 Z m 42.38959,10.52175 c 11.0905,-3.51614 32.53738,-16.49694 32.53738,-19.69339 0,-2.38507 -13.601,-26.622726 -18.4606,-32.897677 C 109.98207,73.027451 98.593792,64.772725 88.741284,62.413894 L 86.200687,61.80564 v 39.13909 39.13911 l 5.752507,-0.72792 c 3.163875,-0.40035 8.742086,-1.67574 12.396006,-2.83418 z"
       id="path8" />
  </g>
</svg>
